<?xml version="1.0" encoding="iso-8859-1"?>
<!-- Generator: Adobe Illustrator 19.0.0, SVG Export Plug-In . SVG Version: 6.00 Build 0)  -->
<svg version="1.1" id="Layer_1" xmlns="http://www.w3.org/2000/svg" xmlns:xlink="http://www.w3.org/1999/xlink" x="0px" y="0px"
	 viewBox="0 0 512 512" style="enable-background:new 0 0 512 512;" xml:space="preserve">
<g transform="translate(1 1)">
	<path style="fill:#FFDD09;" d="M127,391.533c0-14.507,11.093-25.6,25.6-25.6c0-18.773-15.36-34.133-34.133-34.133H50.2
		c-18.773,0-34.133,15.36-34.133,34.133c14.507,0,25.6,11.093,25.6,25.6s-11.093,25.6-25.6,25.6l68.267,85.333l68.267-85.333
		C138.093,417.133,127,406.04,127,391.533"/>
	<g>
		<path style="fill:#FD9808;" d="M50.2,331.8h68.267v-42.667H50.2V331.8L50.2,331.8"/>
		<path style="fill:#FD9808;" d="M127,58.733H41.667V31.427c0-12.8,11.093-23.893,23.893-23.893h36.693
			C115.907,7.533,127,18.627,127,31.427V58.733z"/>
		<polygon style="fill:#FD9808;" points="67.267,408.6 75.8,400.067 92.867,400.067 101.4,408.6 101.4,425.667 92.867,434.2 
			75.8,434.2 67.267,425.667 		"/>
	</g>
	<polygon style="fill:#FFDD09;" points="33.133,289.133 135.533,289.133 135.533,58.733 33.133,58.733 	"/>
	<polygon style="fill:#FD9808;" points="348.867,468.333 502.467,468.333 502.467,7.533 348.867,7.533 	"/>
	<polygon style="fill:#FFFFFF;" points="178.2,468.333 331.8,468.333 331.8,7.533 178.2,7.533 	"/>
	<polygon style="fill:#FFDD09;" points="203.8,468.333 476.867,468.333 476.867,7.533 203.8,7.533 	"/>
	<path d="M84.333,511c-2.56,0-5.12-0.853-6.827-3.413L9.24,422.253c-1.707-2.56-2.56-5.973-0.853-9.387
		c1.707-1.707,4.267-4.267,7.68-4.267c9.387,0,17.067-7.68,17.067-17.067s-7.68-17.067-17.067-17.067
		c-5.12,0-8.533-3.413-8.533-8.533c0-23.893,18.773-42.667,42.667-42.667h68.267c23.893,0,42.667,18.773,42.667,42.667
		c0,5.12-3.413,8.533-8.533,8.533c-9.387,0-17.067,7.68-17.067,17.067s7.68,17.067,17.067,17.067c3.413,0,5.973,1.707,7.68,5.12
		c1.707,2.56,0.853,6.827-0.853,9.387L91.16,508.44C89.453,510.147,86.893,511,84.333,511z M31.427,422.253l52.907,66.56
		l52.907-66.56c-11.093-5.12-18.773-17.067-18.773-30.72c0-15.36,10.24-29.013,24.747-32.427
		c-3.413-11.093-12.8-18.773-24.747-18.773H50.2c-11.947,0-21.333,7.68-24.747,18.773C39.96,363.373,50.2,376.173,50.2,391.533
		C50.2,405.187,42.52,417.133,31.427,422.253z"/>
	<path d="M92.867,442.733H75.8c-2.56,0-4.267-0.853-5.973-2.56l-8.533-8.533c-1.707-1.707-2.56-3.413-2.56-5.973V408.6
		c0-2.56,0.853-4.267,2.56-5.973l8.533-8.533c1.707-1.707,3.413-2.56,5.973-2.56h17.067l0,0c2.56,0,4.267,0.853,5.973,2.56
		l8.533,8.533c1.707,1.707,2.56,3.413,2.56,5.973v17.067c0,2.56-0.853,4.267-2.56,5.973l-8.533,8.533
		C97.133,441.88,95.427,442.733,92.867,442.733z M79.213,425.667h10.24l3.413-3.413v-10.24l-3.413-3.413h-10.24l-3.413,3.413v10.24
		L79.213,425.667z"/>
	<rect x="75.8" y="434.2" width="17.067" height="68.267"/>
	<path d="M135.533,297.667h-102.4c-5.12,0-8.533-3.413-8.533-8.533v-230.4c0-5.12,3.413-8.533,8.533-8.533h102.4
		c5.12,0,8.533,3.413,8.533,8.533v230.4C144.067,294.253,140.653,297.667,135.533,297.667z M41.667,280.6H127V67.267H41.667V280.6z"
		/>
	<path d="M127,67.267H41.667c-5.12,0-8.533-3.413-8.533-8.533V31.427C33.133,13.507,47.64-1,65.56-1h36.693
		c18.773,0,33.28,14.507,33.28,32.427v27.307C135.533,63.853,132.12,67.267,127,67.267z M50.2,50.2h68.267V31.427
		c0-8.533-6.827-15.36-15.36-15.36H65.56c-8.533,0-15.36,6.827-15.36,15.36V50.2z"/>
	<path d="M7.533,212.333C2.413,212.333-1,208.92-1,203.8V84.333c0-5.12,3.413-8.533,8.533-8.533h25.6
		c5.12,0,8.533,3.413,8.533,8.533s-3.413,8.533-8.533,8.533H16.067V203.8C16.067,208.92,12.653,212.333,7.533,212.333z"/>
	<path d="M127,144.067H33.133c-5.12,0-8.533-3.413-8.533-8.533S28.013,127,33.133,127H127c5.12,0,8.533,3.413,8.533,8.533
		S132.12,144.067,127,144.067z"/>
	<path d="M75.8,186.733H41.667c-5.12,0-8.533-3.413-8.533-8.533c0-5.12,3.413-8.533,8.533-8.533H75.8
		c5.12,0,8.533,3.413,8.533,8.533C84.333,183.32,80.067,186.733,75.8,186.733z"/>
	<path d="M67.267,229.4h-25.6c-5.12,0-8.533-3.413-8.533-8.533c0-5.12,3.413-8.533,8.533-8.533h25.6c5.12,0,8.533,3.413,8.533,8.533
		C75.8,225.987,71.533,229.4,67.267,229.4z"/>
	<path d="M50.2,340.333c-2.56,0-4.267-0.853-5.973-2.56c-1.707-1.707-2.56-3.413-2.56-5.973v-0.853v-41.813
		c0-5.12,3.413-8.533,8.533-8.533h68.267c5.12,0,8.533,3.413,8.533,8.533V331.8c0,5.12-3.413,8.533-8.533,8.533H50.2L50.2,340.333z
		 M58.733,323.267h51.2v-25.6h-51.2V323.267z"/>
	<path d="M502.467,476.867H178.2c-5.12,0-8.533-3.413-8.533-8.533V7.533c0-5.12,3.413-8.533,8.533-8.533h324.267
		C507.587-1,511,2.413,511,7.533v460.8C511,473.453,507.587,476.867,502.467,476.867z M186.733,459.8h307.2V16.067h-307.2V459.8z"/>
	<path d="M314.733,152.6c-5.12,0-8.533-3.413-8.533-8.533V84.333c0-5.12,3.413-8.533,8.533-8.533c5.12,0,8.533,3.413,8.533,8.533
		v59.733C323.267,149.187,319.853,152.6,314.733,152.6z"/>
	<path d="M365.933,152.6c-5.12,0-8.533-3.413-8.533-8.533V84.333c0-5.12,3.413-8.533,8.533-8.533s8.533,3.413,8.533,8.533v59.733
		C374.467,149.187,371.053,152.6,365.933,152.6z"/>
	<path d="M391.533,118.467c-2.56,0-4.267-0.853-5.973-2.56L340.333,70.68l-45.227,45.227c-3.413,3.413-8.533,3.413-11.947,0
		c-3.413-3.413-3.413-8.533,0-11.947l51.2-51.2c3.413-3.413,8.533-3.413,11.947,0l51.2,51.2c3.413,3.413,3.413,8.533,0,11.947
		C395.8,117.613,394.093,118.467,391.533,118.467z"/>
	<path d="M468.333,220.867h-93.867c-5.12,0-8.533-3.413-8.533-8.533c0-5.12,3.413-8.533,8.533-8.533h93.867
		c5.12,0,8.533,3.413,8.533,8.533C476.867,217.453,473.453,220.867,468.333,220.867z"/>
	<path d="M255,220.867h-42.667c-5.12,0-8.533-3.413-8.533-8.533c0-5.12,3.413-8.533,8.533-8.533H255c5.12,0,8.533,3.413,8.533,8.533
		C263.533,217.453,260.12,220.867,255,220.867z"/>
	<path d="M374.467,255H306.2c-5.12,0-8.533-3.413-8.533-8.533c0-5.12,3.413-8.533,8.533-8.533h68.267
		c5.12,0,8.533,3.413,8.533,8.533C383,251.587,379.587,255,374.467,255z"/>
	<path d="M272.067,255h-59.733c-5.12,0-8.533-3.413-8.533-8.533c0-5.12,3.413-8.533,8.533-8.533h59.733
		c5.12,0,8.533,3.413,8.533,8.533C280.6,251.587,277.187,255,272.067,255z"/>
	<path d="M468.333,289.133h-128c-5.12,0-8.533-3.413-8.533-8.533c0-5.12,3.413-8.533,8.533-8.533h128
		c5.12,0,8.533,3.413,8.533,8.533S473.453,289.133,468.333,289.133z"/>
	<path d="M306.2,289.133h-93.867c-5.12,0-8.533-3.413-8.533-8.533c0-5.12,3.413-8.533,8.533-8.533H306.2
		c5.12,0,8.533,3.413,8.533,8.533S311.32,289.133,306.2,289.133z"/>
	<path d="M468.333,323.267h-51.2c-5.12,0-8.533-3.413-8.533-8.533c0-5.12,3.413-8.533,8.533-8.533h51.2
		c5.12,0,8.533,3.413,8.533,8.533C476.867,319.853,473.453,323.267,468.333,323.267z"/>
	<path d="M468.333,425.667h-93.867c-5.12,0-8.533-3.413-8.533-8.533s3.413-8.533,8.533-8.533h93.867c5.12,0,8.533,3.413,8.533,8.533
		S473.453,425.667,468.333,425.667z"/>
	<path d="M383,323.267h-59.733c-5.12,0-8.533-3.413-8.533-8.533c0-5.12,3.413-8.533,8.533-8.533H383c5.12,0,8.533,3.413,8.533,8.533
		C391.533,319.853,388.12,323.267,383,323.267z"/>
	<path d="M289.133,323.267h-76.8c-5.12,0-8.533-3.413-8.533-8.533c0-5.12,3.413-8.533,8.533-8.533h76.8
		c5.12,0,8.533,3.413,8.533,8.533C297.667,319.853,294.253,323.267,289.133,323.267z"/>
	<path d="M459.8,400.067c-2.56,0-4.267-0.853-5.973-2.56l-13.653-13.653c-8.533,1.707-21.333,1.707-32.427-7.68l-19.627,13.653
		c-4.267,2.56-9.387,1.707-11.947-2.56c-2.56-4.267-1.707-9.387,2.56-11.947l25.6-17.067c3.413-2.56,8.533-1.707,11.093,1.707
		c11.093,11.947,23.04,6.827,23.893,6.827c3.413-1.707,6.827-0.853,9.387,1.707l17.067,17.067c3.413,3.413,3.413,8.533,0,11.947
		C464.067,399.213,462.36,400.067,459.8,400.067z"/>
	<path d="M340.333,220.867h-51.2c-5.12,0-8.533-3.413-8.533-8.533c0-5.12,3.413-8.533,8.533-8.533h51.2
		c5.12,0,8.533,3.413,8.533,8.533C348.867,217.453,345.453,220.867,340.333,220.867z"/>
	<path d="M468.333,255H408.6c-5.12,0-8.533-3.413-8.533-8.533c0-5.12,3.413-8.533,8.533-8.533h59.733
		c5.12,0,8.533,3.413,8.533,8.533C476.867,251.587,473.453,255,468.333,255z"/>
</g>
<g>
</g>
<g>
</g>
<g>
</g>
<g>
</g>
<g>
</g>
<g>
</g>
<g>
</g>
<g>
</g>
<g>
</g>
<g>
</g>
<g>
</g>
<g>
</g>
<g>
</g>
<g>
</g>
<g>
</g>
</svg>
